<svg width="3276" height="310" viewBox="0 0 3276 310" fill="none" xmlns="http://www.w3.org/2000/svg">
<path d="M265.734 127.027C265.734 109.323 243.689 92.5447 209.89 82.1401C217.689 47.4942 214.223 19.93 198.948 11.1051C195.428 9.03502 191.311 8.05447 186.815 8.05447V20.2023C189.307 20.2023 191.311 20.6926 192.99 21.6187C200.357 25.8677 203.552 42.0467 201.061 62.856C200.465 67.9766 199.49 73.3696 198.298 78.8716C187.682 76.2568 176.091 74.2412 163.903 72.9338C156.591 62.856 149.008 53.7043 141.371 45.6965C159.029 29.1907 175.603 20.1479 186.869 20.1479V8C171.974 8 152.475 18.677 132.759 37.1984C113.042 18.786 93.5431 8.2179 78.6477 8.2179V20.3658C89.8598 20.3658 106.489 29.3541 124.146 45.751C116.563 53.7588 108.98 62.856 101.776 72.9338C89.5349 74.2412 77.9435 76.2568 67.3272 78.9261C66.0814 73.4786 65.1606 68.1945 64.5106 63.1284C61.9648 42.3191 65.1064 26.1401 72.4187 21.8366C74.0436 20.856 76.1561 20.4202 78.6477 20.4202V8.27237C74.0978 8.27237 69.9813 9.25292 66.4064 11.323C51.186 20.1479 47.7736 47.6576 55.6275 82.1945C21.9368 92.6537 0 109.377 0 127.027C0 144.732 22.0452 161.51 55.8442 171.914C48.0444 206.56 51.511 234.124 66.7855 242.949C70.3063 245.019 74.4228 246 78.9727 246C93.8681 246 113.367 235.323 133.084 216.802C152.8 235.214 172.299 245.782 187.194 245.782C191.744 245.782 195.861 244.802 199.436 242.732C214.656 233.907 218.069 206.397 210.215 171.86C243.797 161.455 265.734 144.677 265.734 127.027ZM195.211 90.6926C193.207 97.7198 190.715 104.965 187.899 112.21C185.678 107.852 183.349 103.494 180.803 99.1362C178.311 94.7782 175.657 90.5292 173.003 86.3891C180.695 87.5331 188.115 88.9494 195.211 90.6926ZM170.403 148.708C166.178 156.062 161.845 163.035 157.35 169.518C149.279 170.226 141.1 170.607 132.867 170.607C124.688 170.607 116.509 170.226 108.493 169.572C103.997 163.089 99.6096 156.171 95.3847 148.872C91.2681 141.735 87.5307 134.49 84.1183 127.191C87.4766 119.891 91.2681 112.591 95.3305 105.455C99.5554 98.1012 103.889 91.1284 108.384 84.6459C116.455 83.9377 124.634 83.5564 132.867 83.5564C141.046 83.5564 149.225 83.9377 157.241 84.5914C161.737 91.0739 166.124 97.9922 170.349 105.292C174.466 112.428 178.203 119.673 181.615 126.973C178.203 134.272 174.466 141.572 170.403 148.708ZM187.899 141.626C190.824 148.926 193.315 156.226 195.373 163.307C188.278 165.051 180.803 166.521 173.057 167.665C175.711 163.471 178.366 159.167 180.857 154.755C183.349 150.397 185.678 145.984 187.899 141.626ZM132.975 199.751C127.938 194.521 122.901 188.693 117.917 182.319C122.792 182.537 127.775 182.7 132.813 182.7C137.904 182.7 142.942 182.591 147.871 182.319C142.996 188.693 137.958 194.521 132.975 199.751ZM92.6764 167.665C84.985 166.521 77.5644 165.105 70.4687 163.362C72.4729 156.335 74.9644 149.089 77.781 141.844C80.0018 146.202 82.3309 150.56 84.8767 154.918C87.4224 159.276 90.0223 163.525 92.6764 167.665ZM132.704 54.3035C137.742 59.5331 142.779 65.3619 147.762 71.7354C142.887 71.5175 137.904 71.3541 132.867 71.3541C127.775 71.3541 122.738 71.463 117.809 71.7354C122.684 65.3619 127.721 59.5331 132.704 54.3035ZM92.6223 86.3891C89.9682 90.5837 87.3141 94.8872 84.8225 99.2996C82.3309 103.658 80.0018 108.016 77.781 112.374C74.8561 105.074 72.3645 97.7743 70.3063 90.6926C77.4019 89.0039 84.8767 87.5331 92.6223 86.3891ZM43.6029 154.591C24.4285 146.366 12.0246 135.58 12.0246 127.027C12.0246 118.475 24.4285 107.634 43.6029 99.463C48.2611 97.4475 53.3526 95.6498 58.6066 93.9611C61.694 104.638 65.7564 115.751 70.7937 127.136C65.8106 138.467 61.8023 149.525 58.7691 160.148C53.4068 158.459 48.3152 156.607 43.6029 154.591ZM72.7437 232.436C65.3772 228.187 62.1815 212.008 64.6731 191.198C65.2689 186.078 66.2439 180.685 67.4355 175.183C78.0519 177.798 89.6432 179.813 101.83 181.121C109.143 191.198 116.726 200.35 124.363 208.358C106.705 224.864 90.1307 233.907 78.8643 233.907C76.4269 233.852 74.3686 233.362 72.7437 232.436ZM201.223 190.926C203.769 211.735 200.627 227.914 193.315 232.218C191.69 233.198 189.578 233.634 187.086 233.634C175.874 233.634 159.245 224.646 141.587 208.249C149.171 200.241 156.754 191.144 163.958 181.066C176.199 179.759 187.79 177.743 198.407 175.074C199.652 180.576 200.627 185.86 201.223 190.926ZM222.077 154.591C217.419 156.607 212.327 158.405 207.073 160.093C203.986 149.416 199.923 138.303 194.886 126.918C199.869 115.588 203.877 104.529 206.911 93.9066C212.273 95.5953 217.364 97.4475 222.131 99.463C241.305 107.689 253.709 118.475 253.709 127.027C253.655 135.58 241.251 146.42 222.077 154.591Z" fill="#BC9EF5"/>
<path d="M132.813 151.922C146.484 151.922 157.566 140.776 157.566 127.027C157.566 113.278 146.484 102.132 132.813 102.132C119.142 102.132 108.059 113.278 108.059 127.027C108.059 140.776 119.142 151.922 132.813 151.922Z" fill="#BC9EF5"/>
<path d="M674.886 125.275C674.886 106.742 651.729 89.1795 616.226 78.2883C624.419 42.0218 620.778 13.1682 604.732 3.9305C601.034 1.76362 596.71 0.737171 591.988 0.737171V13.4533C594.605 13.4533 596.71 13.9666 598.474 14.9359C606.212 19.3836 609.569 36.3195 606.951 58.1021C606.326 63.4623 605.302 69.1075 604.05 74.8668C592.897 72.1297 580.722 70.02 567.92 68.6514C560.24 58.1021 552.274 48.5223 544.251 40.14C562.8 22.8621 580.21 13.3962 592.045 13.3962V0.680176C576.398 0.680176 555.915 11.8567 535.206 31.2444C514.495 11.9707 494.012 0.908289 478.366 0.908289V13.6243C490.144 13.6243 507.61 23.0332 526.159 40.197C518.193 48.5794 510.227 58.1021 502.66 68.6514C489.801 70.02 477.626 72.1297 466.474 74.9238C465.165 69.2216 464.198 63.6903 463.515 58.3872C460.842 36.6046 464.141 19.6687 471.823 15.164C473.529 14.1376 475.748 13.6815 478.366 13.6815V0.965284C473.586 0.965284 469.262 1.99173 465.508 4.15861C449.519 13.3962 445.935 42.1928 454.184 78.3453C418.795 89.2937 395.752 106.8 395.752 125.275C395.752 143.808 418.909 161.371 454.412 172.261C446.219 208.529 449.86 237.381 465.906 246.619C469.604 248.786 473.927 249.812 478.707 249.812C494.353 249.812 514.837 238.636 535.547 219.248C556.256 238.523 576.74 249.585 592.386 249.585C597.165 249.585 601.489 248.559 605.245 246.391C621.232 237.153 624.817 208.357 616.567 172.205C651.842 161.314 674.886 143.751 674.886 125.275ZM600.807 87.2408C598.701 94.5972 596.084 102.18 593.125 109.764C590.793 105.203 588.347 100.641 585.672 96.0789C583.055 91.5175 580.266 87.0698 577.479 82.736C585.558 83.9334 593.353 85.4161 600.807 87.2408ZM574.747 147.97C570.31 155.669 565.759 162.967 561.036 169.753C552.558 170.494 543.968 170.893 535.319 170.893C526.727 170.893 518.136 170.494 509.716 169.809C504.993 163.023 500.384 155.782 495.946 148.141C491.622 140.671 487.697 133.087 484.112 125.447C487.64 117.805 491.622 110.163 495.89 102.694C500.328 94.9963 504.879 87.697 509.601 80.9112C518.08 80.1699 526.67 79.7708 535.319 79.7708C543.91 79.7708 552.502 80.1699 560.922 80.8542C565.644 87.64 570.254 94.8816 574.691 102.523C579.016 109.993 582.941 117.577 586.526 125.218C582.941 132.859 579.016 140.5 574.747 147.97ZM593.125 140.558C596.112 147.989 598.733 155.563 600.978 163.252C593.523 165.076 585.672 166.617 577.536 167.814C580.324 163.424 583.111 158.919 585.73 154.299C588.347 149.738 590.793 145.119 593.125 140.558ZM535.432 201.401C530.141 195.926 524.849 189.824 519.615 183.153C524.736 183.381 529.97 183.552 535.262 183.552C540.61 183.552 545.901 183.439 551.08 183.153C546.196 189.514 540.972 195.605 535.432 201.401ZM493.102 167.814C485.023 166.617 477.228 165.134 469.775 163.309C471.879 155.953 474.497 148.369 477.455 140.785C479.789 145.347 482.235 149.909 484.908 154.47C487.582 159.032 490.314 163.48 493.102 167.814ZM535.148 49.1496C540.44 54.6237 545.731 60.7252 550.965 67.3969C545.844 67.1687 540.61 66.9978 535.319 66.9978C529.97 66.9978 524.679 67.1118 519.502 67.3969C524.386 61.0363 529.609 54.945 535.148 49.1496ZM493.044 82.736C490.257 87.1268 487.469 91.6315 484.852 96.2498C482.235 100.812 479.789 105.374 477.455 109.935C474.468 102.504 471.848 94.9301 469.604 87.2408C477.057 85.4731 484.908 83.9334 493.044 82.736ZM441.553 154.128C421.412 145.518 408.383 134.228 408.383 125.275C408.383 116.322 421.412 104.975 441.553 96.4219C446.447 94.3116 451.795 92.4299 457.314 90.6622C460.557 101.838 464.824 113.471 470.116 125.389C464.882 137.25 460.67 148.825 457.485 159.945C451.852 158.177 446.504 156.239 441.553 154.128ZM472.164 235.614C464.426 231.167 461.069 214.231 463.687 192.447C464.313 187.088 465.336 181.442 466.588 175.683C477.74 178.42 489.916 180.53 502.717 181.899C510.398 192.447 518.363 202.027 526.386 210.409C507.838 227.688 490.427 237.153 478.593 237.153C476.033 237.097 473.871 236.583 472.164 235.614ZM607.123 192.163C609.796 213.945 606.497 230.881 598.815 235.386C597.109 236.412 594.89 236.869 592.271 236.869C580.494 236.869 563.027 227.46 544.479 210.296C552.445 201.914 560.41 192.391 567.978 181.841C580.836 180.473 593.012 178.363 604.163 175.569C605.472 181.329 606.497 186.86 607.123 192.163ZM629.027 154.128C624.134 156.239 618.785 158.121 613.266 159.888C610.023 148.712 605.756 137.079 600.465 125.161C605.7 113.3 609.91 101.725 613.096 90.6051C618.729 92.3729 624.077 94.3116 629.084 96.4219C649.225 105.031 662.255 116.322 662.255 125.275C662.197 134.228 649.168 145.575 629.027 154.128Z" fill="#BC9EF5"/>
<path d="M535.262 151.335C549.623 151.335 561.264 139.668 561.264 125.275C561.264 110.883 549.623 99.2156 535.262 99.2156C520.902 99.2156 509.26 110.883 509.26 125.275C509.26 139.668 520.902 151.335 535.262 151.335ZM408.427 294.681H399.844V309.496H395V272.873H407.097C411.213 272.873 414.375 273.813 416.584 275.691C418.809 277.568 419.922 280.302 419.922 283.89C419.922 286.171 419.303 288.158 418.064 289.852C416.843 291.546 415.136 292.812 412.945 293.65L421.528 309.194V309.496H416.358L408.427 294.681ZM399.844 290.732H407.248C409.64 290.732 411.539 290.111 412.945 288.871C414.367 287.63 415.078 285.97 415.078 283.89C415.078 281.627 414.4 279.891 413.045 278.684C411.706 277.476 409.766 276.864 407.222 276.848H399.844V290.732ZM437.239 310C433.558 310 430.563 308.792 428.254 306.377C425.945 303.946 424.79 300.701 424.79 296.643V295.788C424.79 293.089 425.301 290.682 426.321 288.57C427.359 286.439 428.798 284.779 430.638 283.589C432.495 282.382 434.503 281.777 436.661 281.777C440.192 281.777 442.936 282.943 444.893 285.274C446.851 287.604 447.829 290.941 447.829 295.284V297.221H429.433C429.5 299.905 430.278 302.077 431.767 303.737C433.273 305.379 435.181 306.202 437.49 306.202C439.13 306.202 440.518 305.866 441.655 305.195C442.794 304.525 443.789 303.636 444.642 302.529L447.478 304.743C445.202 308.247 441.79 310 437.239 310ZM436.661 285.601C434.788 285.601 433.215 286.289 431.943 287.663C430.672 289.022 429.885 290.934 429.584 293.398H443.187V293.046C443.053 290.682 442.417 288.854 441.28 287.562C440.141 286.255 438.602 285.601 436.661 285.601ZM469.991 309.496C469.723 308.96 469.505 308.004 469.338 306.629C467.179 308.875 464.603 310 461.608 310C458.931 310 456.731 309.245 455.008 307.735C453.301 306.209 452.448 304.281 452.448 301.95C452.448 299.117 453.519 296.92 455.66 295.361C457.818 293.783 460.847 292.995 464.745 292.995H469.263V290.858C469.263 289.231 468.777 287.94 467.808 286.985C466.837 286.012 465.406 285.526 463.515 285.526C461.859 285.526 460.471 285.944 459.35 286.783C458.229 287.621 457.668 288.636 457.668 289.827H453C453 288.469 453.477 287.161 454.43 285.902C455.401 284.628 456.706 283.622 458.346 282.884C460.002 282.147 461.817 281.777 463.791 281.777C466.921 281.777 469.371 282.565 471.145 284.143C472.918 285.702 473.838 287.857 473.906 290.606V303.132C473.906 305.632 474.224 307.618 474.86 309.093V309.496H469.991ZM462.286 305.95C463.742 305.95 465.122 305.573 466.427 304.818C467.731 304.063 468.677 303.083 469.263 301.875V296.292H465.623C459.935 296.292 457.09 297.959 457.09 301.296C457.09 302.755 457.576 303.896 458.546 304.717C459.516 305.538 460.763 305.95 462.286 305.95ZM492.076 306.202C493.733 306.202 495.18 305.698 496.418 304.692C497.656 303.686 498.342 302.429 498.476 300.919H502.869C502.785 302.478 502.249 303.962 501.262 305.371C500.275 306.78 498.953 307.904 497.296 308.741C495.656 309.581 493.917 310 492.076 310C488.379 310 485.434 308.767 483.242 306.302C481.067 303.82 479.979 300.433 479.979 296.14V295.361C479.979 292.711 480.464 290.355 481.435 288.293C482.406 286.23 483.794 284.628 485.602 283.488C487.425 282.347 489.575 281.777 492.051 281.777C495.096 281.777 497.623 282.692 499.631 284.52C501.655 286.347 502.734 288.72 502.869 291.637H498.476C498.342 289.877 497.673 288.434 496.468 287.311C495.281 286.171 493.808 285.601 492.051 285.601C489.692 285.601 487.86 286.456 486.554 288.167C485.267 289.86 484.622 292.317 484.622 295.537V296.416C484.622 299.552 485.267 301.967 486.554 303.66C487.843 305.355 489.684 306.202 492.076 306.202ZM514.388 275.691V282.281H519.458V285.878H514.388V302.755C514.388 303.845 514.614 304.666 515.066 305.22C515.517 305.757 516.287 306.026 517.375 306.026C517.909 306.026 518.646 305.925 519.582 305.723V309.496C518.361 309.832 517.174 310 516.019 310C513.945 310 512.38 309.37 511.325 308.113C510.272 306.856 509.745 305.069 509.745 302.755V285.878H504.8V282.281H509.745V275.691H514.388ZM566.465 309.496H561.62L543.225 281.275V309.496H538.381V272.873H543.225L561.671 301.221V272.873H566.465V309.496ZM591.06 309.496C590.792 308.96 590.574 308.004 590.408 306.629C588.249 308.875 585.672 310 582.677 310C580.001 310 577.8 309.245 576.077 307.735C574.371 306.209 573.517 304.281 573.517 301.95C573.517 299.117 574.587 296.92 576.73 295.361C578.887 293.783 581.917 292.995 585.815 292.995H590.333V290.858C590.333 289.231 589.847 287.94 588.876 286.985C587.906 286.012 586.475 285.526 584.584 285.526C582.928 285.526 581.54 285.944 580.419 286.783C579.298 287.621 578.737 288.636 578.737 289.827H574.069C574.069 288.469 574.546 287.161 575.499 285.902C576.47 284.628 577.775 283.622 579.415 282.884C581.072 282.147 582.886 281.777 584.861 281.777C587.989 281.777 590.441 282.565 592.214 284.143C593.988 285.702 594.908 287.857 594.975 290.606V303.132C594.975 305.632 595.293 307.618 595.929 309.093V309.496H591.06ZM583.355 305.95C584.811 305.95 586.191 305.573 587.497 304.818C588.801 304.063 589.746 303.083 590.333 301.875V296.292H586.693C581.004 296.292 578.16 297.959 578.16 301.296C578.16 302.755 578.646 303.896 579.615 304.717C580.586 305.538 581.833 305.95 583.355 305.95ZM608.553 275.691V282.281H613.622V285.878H608.553V302.755C608.553 303.845 608.779 304.666 609.231 305.22C609.682 305.757 610.452 306.026 611.54 306.026C612.074 306.026 612.811 305.925 613.748 305.723V309.496C612.526 309.832 611.339 310 610.184 310C608.11 310 606.545 309.37 605.49 308.113C604.437 306.856 603.91 305.069 603.91 302.755V285.878H598.966V282.281H603.91V275.691H608.553ZM624.114 309.496H619.47V282.281H624.114V309.496ZM619.093 275.061C619.093 274.308 619.32 273.67 619.771 273.15C620.24 272.63 620.925 272.371 621.829 272.371C622.733 272.371 623.419 272.63 623.887 273.15C624.355 273.67 624.589 274.308 624.589 275.061C624.589 275.816 624.355 276.445 623.887 276.949C623.419 277.451 622.733 277.703 621.829 277.703C620.925 277.703 620.24 277.451 619.771 276.949C619.32 276.445 619.093 275.816 619.093 275.061ZM640.527 303.183L647.252 282.281H651.996L642.258 309.496H638.719L628.882 282.281H633.625L640.527 303.183ZM667.38 310C663.7 310 660.705 308.792 658.396 306.377C656.087 303.946 654.933 300.701 654.933 296.643V295.788C654.933 293.089 655.443 290.682 656.463 288.57C657.5 286.439 658.939 284.779 660.78 283.589C662.638 282.382 664.645 281.777 666.803 281.777C670.333 281.777 673.078 282.943 675.036 285.274C676.992 287.604 677.972 290.941 677.972 295.284V297.221H659.575C659.643 299.905 660.42 302.077 661.91 303.737C663.415 305.379 665.323 306.202 667.631 306.202C669.271 306.202 670.66 305.866 671.798 305.195C672.935 304.525 673.931 303.636 674.785 302.529L677.621 304.743C675.345 308.247 671.931 310 667.38 310ZM666.803 285.601C664.93 285.601 663.356 286.289 662.085 287.663C660.813 289.022 660.027 290.934 659.727 293.398H673.328V293.046C673.195 290.682 672.559 288.854 671.421 287.562C670.284 286.255 668.744 285.601 666.803 285.601Z" fill="#BC9EF5"/>
<path d="M904.978 10.5391C910.864 7.16126 918.53 7.146 924.41 10.5391C953.993 27.3005 983.586 44.0355 1013.16 60.807C1018.73 63.9493 1022.45 70.1574 1022.39 76.5851V177.428C1022.43 184.122 1018.34 190.478 1012.48 193.549C982.989 210.218 953.518 226.907 924.037 243.576C918.03 247.02 910.21 246.755 904.391 243.029C895.551 237.89 886.696 232.777 877.855 227.644C876.048 226.564 874.012 225.705 872.736 223.948C873.864 222.424 875.88 222.234 877.518 221.569C881.208 220.392 884.597 218.504 887.987 216.671C888.845 216.083 889.891 216.308 890.713 216.835C898.272 221.181 905.765 225.653 913.349 229.957C914.967 230.894 916.605 229.65 917.988 228.877C946.924 212.48 975.894 196.144 1004.82 179.741C1005.9 179.224 1006.49 178.083 1006.4 176.906C1006.42 143.64 1006.41 110.368 1006.41 77.1022C1006.53 75.7663 1005.76 74.538 1004.56 73.9913C975.175 57.3987 945.806 40.7806 916.427 24.1837C915.918 23.8328 915.315 23.6445 914.697 23.6436C914.08 23.6427 913.476 23.8292 912.966 24.1786C883.587 40.7806 854.224 57.4139 824.845 74.0057C823.644 74.5533 822.839 75.7612 822.981 77.1022C822.987 110.368 822.981 143.64 822.981 176.911C822.931 177.485 823.056 178.062 823.342 178.562C823.628 179.063 824.059 179.463 824.579 179.71C832.419 184.168 840.269 188.595 848.114 193.037C852.534 195.422 857.96 196.84 862.829 195.012C867.126 193.467 870.138 189.07 870.056 184.495C870.097 151.424 870.036 118.347 870.087 85.2803C869.979 83.8121 871.368 82.5991 872.792 82.7373C876.559 82.7119 880.331 82.6865 884.098 82.7475C885.67 82.7119 886.752 84.2927 886.558 85.7719C886.543 119.053 886.598 152.335 886.533 185.616C886.543 194.486 882.908 204.137 874.726 208.477C864.646 213.713 852.187 212.603 842.229 207.582C833.608 203.267 825.381 198.176 816.913 193.553C811.028 190.499 806.959 184.117 807.001 177.429V76.5851C806.939 70.0243 810.808 63.7034 816.545 60.607C846.026 43.9245 875.502 27.2293 904.978 10.5391Z" fill="#BC9EF5"/>
<path d="M930.698 80.3936C943.556 79.5637 957.321 79.9019 968.891 86.2534C977.85 91.1205 982.816 101.336 982.974 111.315C982.724 112.661 981.321 113.403 980.039 113.311C976.308 113.306 972.577 113.362 968.846 113.286C967.264 113.347 966.344 111.884 966.145 110.481C965.074 105.706 962.477 100.977 957.994 98.6739C951.114 95.2197 943.136 95.3935 935.634 95.4656C930.157 95.7572 924.267 96.2327 919.627 99.4622C916.064 101.909 914.982 106.847 916.254 110.824C917.453 113.68 920.74 114.601 923.43 115.45C938.926 119.514 955.346 119.11 970.546 124.458C976.838 126.638 982.994 130.876 985.148 137.482C987.966 146.337 986.731 156.921 980.448 164.029C975.353 169.879 967.933 173.062 960.531 174.792C950.685 176.993 940.468 177.049 930.469 176.072C921.066 174.997 911.282 172.52 904.024 166.096C897.817 160.693 894.786 152.273 895.087 144.147C895.159 142.774 896.521 141.817 897.832 141.93C901.589 141.9 905.346 141.889 909.103 141.935C910.603 141.828 911.716 143.128 911.793 144.546C912.486 149.095 914.191 153.87 918.147 156.567C925.783 161.506 935.363 161.168 944.106 161.306C951.349 160.984 959.48 160.887 965.391 156.087C968.509 153.349 969.433 148.768 968.59 144.827C967.677 141.5 964.206 139.95 961.225 138.936C945.929 134.084 929.325 135.845 914.176 130.358C908.026 128.179 902.079 124.058 899.716 117.723C896.419 108.757 897.93 97.6661 904.871 90.7976C911.639 83.9656 921.409 81.3353 930.698 80.3936Z" fill="#BC9EF5"/>
<g clip-path="url(#clip0_8_492)">
<path d="M1152 7H1395V250H1152V7Z" fill="#BC9EF5"/>
<path d="M1375.11 192.045C1373.33 180.958 1366.1 171.649 1344.69 162.964C1337.25 159.545 1328.96 157.097 1326.49 151.46C1325.61 148.18 1325.5 146.332 1326.05 144.346C1327.64 137.901 1335.34 135.892 1341.43 137.74C1345.36 139.056 1349.08 142.082 1351.32 146.91C1361.81 140.119 1361.78 140.165 1369.11 135.499C1366.43 131.341 1364.99 129.424 1363.24 127.646C1356.93 120.6 1348.34 116.974 1334.6 117.251C1332.22 117.551 1329.82 117.875 1327.44 118.175C1320.58 119.907 1314.04 123.511 1310.2 128.339C1298.7 141.389 1301.98 164.234 1315.98 173.635C1329.77 183.984 1350.03 186.34 1352.61 196.018C1355.13 207.868 1343.91 211.702 1332.75 210.34C1324.53 208.63 1319.95 204.449 1315.01 196.85C1305.91 202.116 1305.91 202.116 1296.55 207.498C1298.77 212.349 1301.1 214.544 1304.82 218.747C1322.42 236.603 1366.47 235.725 1374.37 208.699C1374.7 207.775 1376.82 201.585 1375.11 192.045ZM1284.1 118.683H1261.37C1261.37 138.317 1261.28 157.812 1261.28 177.447C1261.28 189.943 1261.93 201.4 1259.9 204.911C1256.57 211.817 1247.95 210.963 1244.03 209.623C1240.03 207.66 1238 204.865 1235.64 200.915C1234.99 199.783 1234.51 198.905 1234.35 198.836C1228.18 202.601 1222.04 206.389 1215.87 210.154C1218.94 216.46 1223.47 221.935 1229.27 225.492C1237.93 230.689 1249.57 232.283 1261.74 229.488C1269.67 227.178 1276.5 222.397 1280.08 215.121C1285.26 205.581 1284.15 194.031 1284.1 181.258C1284.22 160.423 1284.1 139.587 1284.1 118.683Z" fill="#323330"/>
</g>
<path d="M1541.42 226.965L1524 13.3992L1732 13.8284L1713.58 226.965L1628.79 251.601L1541.42 226.965Z" fill="#BC9EF5"/>
<path d="M1628.79 230.975V33.7386L1714.44 34.0247L1699.17 210.491L1628.79 230.975Z" fill="#D3BCFF"/>
<path d="M1690.89 83.0124L1693.31 56.9424H1561.55L1568.83 136.869H1659.76L1656.2 170.959L1627.07 178.835L1597.52 170.242L1595.95 149.902H1569.83L1573.39 191.441L1627.07 206.481L1681.18 191.441L1688.46 110.37H1592.95L1590.24 83.0124H1690.89Z" fill="#323330"/>
<g clip-path="url(#clip1_8_492)">
<path d="M1878.42 226.387L1861 13.3998L2069 13.8278L2050.58 226.387L1965.79 250.957L1878.42 226.387Z" fill="#BC9EF5"/>
<path d="M1965.79 230.387V33.6844L2051.44 33.9698L2036.17 209.96L1965.79 230.387Z" fill="#D3BCFF"/>
<path d="M2030.17 58.8265H1898.4L1901.97 84.5377H1964.5L1902.97 110.966L1906.54 135.821H1997.19L1993.91 170.532L1963.22 176.533L1935.38 169.391L1933.24 149.677H1907.68L1911.11 190.676L1965.93 205.96L2018.46 189.247L2025.17 109.107H1969.64L2030.17 83.967L2030.17 58.8265Z" fill="#323330"/>
</g>
<path d="M2831 16C2779.8 16 2747.8 41.5561 2735 92.6635C2754.2 67.1074 2776.6 57.5274 2802.2 63.9141C2816.81 67.5581 2827.25 78.1401 2838.8 89.8489C2857.63 108.923 2879.41 130.998 2927 130.998C2978.2 130.998 3010.2 105.442 3023 54.3293C3003.8 79.8854 2981.4 89.4702 2955.8 83.0835C2941.2 79.4395 2930.76 68.8575 2919.2 57.1487C2900.38 38.0751 2878.59 16 2831 16ZM2735 130.998C2683.8 130.998 2651.8 156.554 2639 207.666C2658.2 182.11 2680.6 172.525 2706.2 178.916C2720.8 182.565 2731.24 193.143 2742.8 204.847C2761.62 223.92 2783.41 246 2831 246C2882.2 246 2914.2 220.444 2927 169.332C2907.8 194.888 2885.4 204.473 2859.8 198.081C2845.19 194.442 2834.76 183.855 2823.2 172.151C2804.37 153.077 2782.59 130.998 2735 130.998Z" fill="#BC9EF5"/>
<path d="M3213.14 1.754L3220.5 15.5908C3222.16 18.1442 3223.95 20.4043 3226.07 22.5092C3232.26 28.6281 3238.04 35.1588 3243.35 42.0566C3255.84 58.4468 3264.26 76.6486 3270.27 96.3341C3273.87 108.359 3275.83 120.695 3275.98 133.169C3276.58 170.461 3263.8 202.482 3238.02 229.095C3233.83 233.315 3229.3 237.187 3224.48 240.671C3221.93 240.671 3220.72 238.713 3219.67 236.91C3217.75 233.567 3216.47 229.895 3215.91 226.084C3215 221.572 3214.4 217.061 3214.7 212.403V210.298C3214.49 209.849 3212.24 2.81505 3213.14 1.754Z" fill="#BC9EF5"/>
<path d="M3213.14 1.29677C3212.83 0.692925 3212.53 1.15013 3212.23 1.44342C3212.38 4.46267 3211.32 7.15411 3209.68 9.72479C3207.87 12.2782 3205.47 14.2364 3203.06 16.3413C3189.69 27.9179 3179.17 41.9013 3170.74 57.541C3159.52 78.5895 3153.74 101.148 3152.1 124.896C3151.35 133.462 3154.81 163.689 3157.51 172.41C3164.88 195.564 3178.11 214.965 3195.25 231.803C3199.46 235.858 3203.97 239.619 3208.62 243.233C3209.98 243.233 3210.13 242.026 3210.44 241.129C3211.03 239.209 3211.48 237.248 3211.79 235.263L3214.81 212.713L3213.14 1.29677Z" fill="#D3BCFF"/>
<path d="M3220.5 249.833C3220.81 246.382 3222.46 243.518 3224.26 240.663C3222.45 239.912 3221.11 238.42 3220.05 236.755C3219.15 235.179 3218.4 233.517 3217.81 231.795C3215.71 225.48 3215.26 218.855 3214.65 212.403V208.495C3213.9 209.099 3213.75 214.205 3213.75 214.965C3213.31 221.784 3212.4 228.566 3211.04 235.263C3210.59 237.971 3210.29 240.671 3208.62 243.078C3208.62 243.38 3208.62 243.682 3208.77 244.13C3211.48 252.101 3212.22 260.219 3212.68 268.492V271.511C3212.68 275.117 3212.53 274.357 3215.53 275.565C3216.73 276.014 3218.08 276.169 3219.29 277.066C3220.19 277.066 3220.34 276.316 3220.34 275.712L3219.89 270.752V256.915C3219.74 254.499 3220.19 252.101 3220.49 249.841L3220.5 249.833Z" fill="#BC9EF5"/>
<path d="M2466.58 147.369C2455.68 147.431 2446.23 150.052 2438.31 153.956C2435.38 148.163 2432.46 143.101 2431.97 139.321C2431.42 134.931 2430.75 132.247 2431.42 127.004C2432.09 121.759 2435.14 114.32 2435.14 113.71C2435.08 113.161 2434.47 110.478 2428.19 110.417C2421.91 110.356 2416.49 111.637 2415.88 113.283C2415.27 114.929 2414.05 118.71 2413.26 122.613C2412.16 128.344 2400.71 148.65 2394.18 159.321C2392.05 155.174 2390.22 151.516 2389.86 148.588C2389.31 144.199 2388.64 141.515 2389.31 136.271C2389.98 131.027 2393.03 123.588 2393.03 122.978C2392.97 122.43 2392.36 119.747 2386.08 119.686C2379.8 119.625 2374.38 120.905 2373.77 122.552C2373.16 124.198 2372.49 128.101 2371.15 131.881C2369.87 135.662 2354.63 169.565 2350.67 178.407C2348.66 182.919 2346.89 186.517 2345.61 188.956C2344.33 191.395 2345.55 189.139 2345.43 189.383C2344.33 191.456 2343.72 192.615 2343.72 192.615V192.676C2342.87 194.201 2341.96 195.663 2341.53 195.663C2341.22 195.663 2340.62 191.578 2341.65 185.969C2343.91 174.199 2349.39 155.846 2349.33 155.175C2349.33 154.87 2350.37 151.638 2345.8 149.992C2341.35 148.346 2339.76 151.09 2339.4 151.09C2339.03 151.09 2338.73 152.065 2338.73 152.065C2338.73 152.065 2343.66 131.395 2329.28 131.395C2320.26 131.395 2307.83 141.212 2301.67 150.176C2297.77 152.31 2289.48 156.821 2280.71 161.639C2277.36 163.469 2273.88 165.42 2270.59 167.188L2269.92 166.455C2252.49 147.857 2220.25 134.686 2221.59 109.685C2222.08 100.6 2225.25 76.6356 2283.51 47.6104C2331.23 23.8292 2369.44 30.3538 2376.08 44.8664C2385.53 65.5987 2355.67 104.136 2306.06 109.685C2287.17 111.82 2277.24 104.502 2274.74 101.758C2272.12 98.8924 2271.75 98.7704 2270.78 99.3192C2269.19 100.173 2270.17 102.734 2270.78 104.258C2272.24 108.1 2278.33 114.929 2288.69 118.344C2297.77 121.332 2319.96 122.978 2346.77 112.612C2376.82 100.966 2400.28 68.6476 2393.39 41.6346C2386.38 14.1338 2340.8 5.10916 2297.71 20.4145C2272.06 29.5611 2244.27 43.8298 2224.28 62.5498C2200.51 84.7456 2196.73 104.136 2198.31 112.185C2203.86 140.906 2243.41 159.626 2259.26 173.468C2258.46 173.894 2257.73 174.321 2257.06 174.687C2249.14 178.589 2218.97 194.383 2211.42 211.09C2202.88 229.993 2212.76 243.592 2219.34 245.421C2239.69 251.092 2260.54 240.909 2271.81 224.14C2283.02 207.371 2281.68 185.602 2276.5 175.663L2276.32 175.297L2282.54 171.638C2286.56 169.26 2290.52 167.065 2293.99 165.174C2292.04 170.479 2290.64 176.76 2289.91 185.906C2289.06 196.639 2293.45 210.541 2299.24 216.029C2301.8 218.407 2304.84 218.468 2306.73 218.468C2313.44 218.468 2316.48 212.919 2319.83 206.273C2323.98 198.163 2327.63 188.772 2327.63 188.772C2327.63 188.772 2323.06 214.2 2335.56 214.2C2340.13 214.2 2344.7 208.285 2346.77 205.236V205.297C2346.77 205.297 2346.89 205.114 2347.14 204.688C2347.39 204.309 2347.64 203.923 2347.87 203.53V203.408C2349.7 200.237 2353.78 192.98 2359.87 180.968C2367.73 165.48 2375.29 146.089 2375.29 146.089C2375.29 146.089 2376.02 150.845 2378.28 158.65C2379.62 163.285 2382.54 168.346 2384.8 173.285C2382.97 175.846 2381.87 177.31 2381.87 177.31L2381.93 177.371C2380.47 179.322 2378.83 181.396 2377.12 183.469C2370.9 190.908 2363.47 199.384 2362.49 201.823C2361.34 204.689 2361.58 206.823 2363.83 208.531C2365.48 209.75 2368.41 209.994 2371.51 209.75C2377.12 209.384 2381.02 207.982 2382.97 207.128C2386.02 206.03 2389.49 204.384 2392.84 201.945C2398.94 197.433 2402.66 191.03 2402.29 182.494C2402.11 177.798 2400.58 173.164 2398.69 168.774C2399.24 167.981 2399.79 167.188 2400.34 166.335C2409.97 152.248 2417.4 136.761 2417.4 136.761C2417.4 136.761 2418.14 141.517 2420.39 149.322C2421.55 153.285 2423.86 157.615 2425.94 161.884C2416.92 169.262 2411.25 177.799 2409.3 183.409C2405.7 193.775 2408.51 198.47 2413.81 199.568C2416.18 200.056 2419.6 198.958 2422.16 197.86C2425.33 196.824 2429.17 195.055 2432.7 192.433C2438.79 187.921 2444.65 181.641 2444.34 173.165C2444.16 169.262 2443.12 165.421 2441.72 161.762C2449.4 158.591 2459.33 156.762 2471.95 158.286C2499.07 161.457 2504.43 178.409 2503.39 185.482C2502.36 192.556 2496.69 196.458 2494.8 197.678C2492.91 198.836 2492.3 199.264 2492.49 200.117C2492.73 201.398 2493.58 201.336 2495.23 201.093C2497.48 200.726 2509.49 195.3 2509.98 182.251C2510.71 165.48 2494.8 147.187 2466.58 147.369ZM2257.43 217.92C2248.47 227.738 2235.86 231.457 2230.49 228.286C2224.7 224.933 2226.96 210.481 2237.99 200.054C2244.69 193.712 2253.41 187.858 2259.14 184.261C2260.41 183.468 2262.37 182.31 2264.68 180.907C2265.05 180.664 2265.29 180.541 2265.29 180.541C2265.72 180.297 2266.2 179.992 2266.69 179.687C2270.78 194.566 2266.87 207.615 2257.43 217.92ZM2322.94 173.346C2319.83 180.968 2313.25 200.542 2309.29 199.444C2305.88 198.529 2303.81 183.712 2308.62 169.077C2311.06 161.698 2316.24 152.918 2319.29 149.503C2324.22 144.015 2329.58 142.186 2330.93 144.442C2332.51 147.369 2324.89 168.59 2322.94 173.346ZM2377 199.2C2375.66 199.872 2374.44 200.359 2373.89 199.993C2373.46 199.75 2374.44 198.835 2374.44 198.835C2374.44 198.835 2381.2 191.579 2383.88 188.225C2385.41 186.274 2387.24 184.018 2389.19 181.456V182.188C2389.19 190.968 2380.78 196.822 2377 199.2ZM2418.68 189.688C2417.71 188.956 2417.83 186.7 2421.12 179.626C2422.4 176.821 2425.33 172.126 2430.38 167.675C2430.99 169.504 2431.36 171.272 2431.3 172.919C2431.24 183.895 2423.44 187.98 2418.68 189.688Z" fill="#BC9EF5"/>
<defs>
<clipPath id="clip0_8_492">
<rect width="243" height="243" fill="white" transform="translate(1152 7)"/>
</clipPath>
<clipPath id="clip1_8_492">
<rect width="208" height="238.357" fill="white" transform="translate(1861 13)"/>
</clipPath>
</defs>
</svg>
