<svg width="3276" height="308" viewBox="0 0 3276 308" fill="none" xmlns="http://www.w3.org/2000/svg">
<path d="M43.7396 34H203.26C227.446 34 247 53.5512 247 77.7329V231.056C247 255.237 227.446 274.788 203.26 274.788H43.7396C19.5542 274.788 0 255.237 0 231.056V77.7329C0 53.5512 19.5542 34 43.7396 34Z" fill="#FF6352"/>
<path d="M55.5455 202.888V97.0428C55.5455 96.3228 55.8541 95.9114 56.5741 95.9114C58.3227 95.9114 59.9685 95.9114 62.3344 95.8085C64.8031 95.7056 67.3746 95.7056 70.1519 95.6028C72.9292 95.4999 75.9122 95.4999 79.1009 95.397C82.2896 95.2942 85.3755 95.2942 88.4613 95.2942C96.896 95.2942 103.891 96.3228 109.651 98.4829C114.794 100.232 119.526 103.112 123.434 106.918C126.726 110.209 129.298 114.221 130.943 118.644C132.486 122.964 133.309 127.387 133.309 132.016C133.309 140.862 131.252 148.165 127.137 153.926C123.023 159.686 117.263 164.006 110.577 166.475C103.582 169.046 95.8674 169.972 87.4327 169.972C84.964 169.972 83.3182 169.972 82.2896 169.869C81.261 169.766 79.8209 169.766 77.8665 169.766V202.785C77.9694 203.505 77.4551 204.122 76.735 204.225H56.7798C55.9569 204.225 55.5455 203.814 55.5455 202.888ZM77.9694 115.764V150.325C79.4095 150.428 80.7467 150.531 81.981 150.531H87.4327C91.4443 150.531 95.4559 149.914 99.2618 148.68C102.553 147.754 105.434 145.799 107.697 143.228C109.857 140.656 110.885 137.159 110.885 132.633C110.988 129.444 110.165 126.256 108.519 123.478C106.771 120.804 104.302 118.747 101.319 117.615C97.5132 116.072 93.3987 115.455 89.1814 115.558C86.5069 115.558 84.1411 115.558 82.1867 115.661C80.1295 115.558 78.6894 115.661 77.9694 115.764ZM197.495 144.051C194.409 142.405 191.118 141.274 187.62 140.553C183.814 139.731 180.009 139.216 176.1 139.216C174.043 139.113 171.882 139.422 169.928 139.936C168.591 140.245 167.459 140.965 166.739 141.994C166.225 142.816 165.916 143.845 165.916 144.771C165.916 145.697 166.328 146.622 166.945 147.445C167.871 148.577 169.105 149.502 170.442 150.223C172.808 151.457 175.277 152.588 177.746 153.617C183.3 155.468 188.649 158.04 193.586 161.126C196.981 163.286 199.758 166.166 201.712 169.663C203.358 172.955 204.181 176.555 204.078 180.258C204.181 185.093 202.741 189.927 200.067 193.939C197.186 198.053 193.175 201.242 188.546 203.094C183.506 205.254 177.334 206.385 169.928 206.385C165.196 206.385 160.568 205.974 155.939 205.048C152.339 204.431 148.738 203.299 145.447 201.756C144.727 201.345 144.213 200.625 144.315 199.802V181.904C144.315 181.595 144.418 181.184 144.727 180.978C145.035 180.773 145.344 180.875 145.653 181.081C149.664 183.447 153.882 185.093 158.408 186.121C162.316 187.15 166.431 187.664 170.545 187.664C174.454 187.664 177.231 187.15 179.083 186.224C180.729 185.504 181.86 183.756 181.86 181.904C181.86 180.464 181.037 179.127 179.391 177.79C177.746 176.452 174.351 174.909 169.311 172.955C164.065 171.104 159.23 168.635 154.704 165.549C151.516 163.286 148.841 160.303 146.887 156.806C145.241 153.514 144.418 149.914 144.521 146.314C144.521 141.891 145.755 137.673 148.018 133.867C150.59 129.753 154.396 126.461 158.819 124.404C163.653 121.935 169.722 120.804 177.026 120.804C181.243 120.804 185.563 121.113 189.78 121.73C192.866 122.141 195.849 122.964 198.627 124.096C199.038 124.198 199.449 124.61 199.655 125.021C199.758 125.433 199.861 125.844 199.861 126.256V143.022C199.861 143.434 199.655 143.845 199.347 144.051C198.421 144.257 197.907 144.257 197.495 144.051Z" fill="#323330"/>
<path d="M425.271 32H586.729C611.208 32 631 51.7917 631 76.2708V231.479C631 255.958 611.208 275.75 586.729 275.75H425.271C400.792 275.75 381 255.958 381 231.479V76.2708C381 51.7917 400.792 32 425.271 32Z" fill="#FF6352"/>
<path d="M501.833 177.833H463.083L455.167 202.313C454.958 203.25 454.125 203.875 453.188 203.771H433.604C432.458 203.771 432.146 203.146 432.458 201.896L466 105.333C466.313 104.292 466.625 103.146 467.042 101.896C467.458 99.7083 467.667 97.4167 467.667 95.125C467.563 94.6042 467.979 94.0833 468.5 93.9792H495.479C496.313 93.9792 496.729 94.2917 496.833 94.8125L534.854 202.104C535.167 203.25 534.854 203.771 533.813 203.771H512.042C511.313 203.875 510.583 203.354 510.375 202.625L501.833 177.833ZM469.125 156.688H495.583C494.958 154.5 494.125 151.896 493.188 149.188C492.25 146.375 491.313 143.354 490.375 140.229C489.333 137 488.396 133.875 487.354 130.646C486.313 127.417 485.375 124.396 484.542 121.375C483.708 118.458 482.979 115.75 482.25 113.25H482.042C481.104 117.729 479.958 122.208 478.5 126.688C476.938 131.688 475.375 136.896 473.708 142.104C472.25 147.417 470.688 152.313 469.125 156.688ZM558.083 112.208C554.646 112.313 551.313 110.958 548.813 108.563C546.417 105.958 545.167 102.521 545.271 98.9792C545.167 95.4375 546.521 92.1042 549.021 89.7083C551.521 87.3125 554.854 86.0625 558.292 86.0625C562.354 86.0625 565.479 87.3125 567.771 89.7083C570.063 92.2083 571.313 95.5417 571.208 98.9792C571.313 102.521 570.063 105.958 567.563 108.563C565.167 111.063 561.625 112.417 558.083 112.208ZM546.417 202.625V122.417C546.417 121.375 546.833 120.958 547.771 120.958H568.396C569.333 120.958 569.75 121.479 569.75 122.417V202.625C569.75 203.771 569.333 204.292 568.396 204.292H547.979C546.938 204.292 546.417 203.667 546.417 202.625Z" fill="#323330"/>
<path d="M809.316 32H970.94C995.444 32 1015.26 51.812 1015.26 76.3162V231.684C1015.26 256.188 995.444 276 970.94 276H809.316C784.812 276 765 256.188 765 231.684V76.3162C765 51.812 784.812 32 809.316 32Z" fill="#FF6352"/>
<path d="M855.926 95.8154V203.217C855.926 204.364 855.405 204.886 854.467 204.886H834.029C833.091 204.886 832.674 204.364 832.674 203.217V95.8154C832.674 94.877 833.195 94.4599 834.133 94.4599H854.467C855.092 94.3556 855.718 94.7727 855.822 95.5026C855.926 95.6069 855.926 95.7111 855.926 95.8154ZM916.197 206.137C908.48 206.241 900.764 204.677 893.778 201.444C887.209 198.421 881.786 193.415 878.032 187.263C874.174 180.903 872.297 172.978 872.297 163.489C872.193 155.773 874.174 148.161 878.032 141.487C881.995 134.709 887.73 129.079 894.612 125.325C901.911 121.258 910.67 119.277 920.993 119.277C921.515 119.277 922.244 119.277 923.183 119.381C924.121 119.486 925.164 119.486 926.415 119.59V86.6394C926.415 85.9094 926.728 85.4923 927.458 85.4923H948.626C949.147 85.3881 949.564 85.8052 949.668 86.2223V185.699C949.668 187.576 949.773 189.662 949.877 191.956C950.085 194.145 950.19 196.231 950.294 198.003C950.294 198.733 949.981 199.359 949.251 199.672C943.829 201.966 938.094 203.634 932.255 204.677C927.041 205.615 921.619 206.137 916.197 206.137ZM926.415 185.282V139.402C925.477 139.193 924.538 138.985 923.6 138.88C922.453 138.776 921.306 138.672 920.159 138.672C916.092 138.672 912.026 139.506 908.376 141.383C904.831 143.156 901.807 145.762 899.513 149.099C897.219 152.436 896.072 156.92 896.072 162.342C895.968 165.991 896.593 169.641 897.844 173.082C898.887 175.897 900.451 178.4 902.537 180.486C904.518 182.362 906.916 183.822 909.627 184.656C912.443 185.595 915.362 186.012 918.282 186.012C919.846 186.012 921.306 185.908 922.662 185.803C924.017 185.908 925.268 185.699 926.415 185.282Z" fill="#323330"/>
<path d="M1612.71 154.199C1612.71 131.938 1630.75 113.8 1653.11 113.8C1675.37 113.8 1693.51 131.847 1693.51 154.199C1693.51 176.46 1675.46 194.599 1653.11 194.599C1630.85 194.599 1612.71 176.46 1612.71 154.199Z" fill="#FF7A6B"/>
<path d="M1532 234.907C1532 212.646 1550.05 194.507 1572.4 194.507H1612.8V234.907C1612.8 257.168 1594.75 275.307 1572.4 275.307C1550.05 275.307 1532 257.26 1532 234.907Z" fill="#FF7A6B"/>
<path d="M1612.71 33.0916V113.799H1653.11C1675.37 113.799 1693.51 95.7524 1693.51 73.3997C1693.51 51.1387 1675.46 33 1653.11 33H1612.71V33.0916Z" fill="#FF6352"/>
<path d="M1532 73.4914C1532 95.7524 1550.05 113.891 1572.4 113.891H1612.8V33.0916H1572.4C1550.05 33.0916 1532 51.1387 1532 73.4914Z" fill="#FF7A6B"/>
<path d="M1532 154.199C1532 176.46 1550.05 194.599 1572.4 194.599H1612.8V113.8H1572.4C1550.05 113.8 1532 131.938 1532 154.199Z" fill="#FF6352"/>
<path d="M1193.09 32H1353.91C1378.29 32 1398 51.7382 1398 76.1512V230.94C1398 255.353 1378.29 275.091 1353.91 275.091H1193.09C1168.71 275.091 1149 255.353 1149 230.94V76.1512C1149 51.7382 1168.71 32 1193.09 32Z" fill="#FF6352"/>
<path d="M1279.93 95.8894L1248.81 147.313L1282.01 201.852C1282.21 202.268 1282.32 202.683 1282.21 203.099C1282.11 203.514 1281.7 203.203 1281.07 203.307H1257.31C1255.65 203.307 1254.51 203.203 1253.79 202.164C1251.61 197.801 1249.33 193.541 1247.15 189.178C1244.97 184.919 1242.58 180.556 1240.09 176.089C1237.6 171.622 1235.11 167.155 1232.62 162.584H1232.41C1230.24 167.051 1227.85 171.518 1225.46 175.985C1223.08 180.452 1220.69 184.919 1218.41 189.282C1216.02 193.645 1213.64 198.112 1211.25 202.372C1210.83 203.411 1210 203.514 1208.86 203.514H1186.04C1185.62 203.514 1185.31 203.722 1185.31 203.203C1185.21 202.787 1185.31 202.372 1185.52 202.06L1217.79 149.079L1186.35 95.7855C1186.04 95.37 1185.93 94.9544 1186.14 94.7467C1186.35 94.435 1186.76 94.3311 1187.18 94.3311H1210.73C1211.25 94.3311 1211.77 94.435 1212.18 94.5389C1212.6 94.7467 1212.91 95.0583 1213.22 95.4739C1215.19 99.9409 1217.47 104.408 1219.86 108.875C1222.35 113.342 1224.74 117.705 1227.33 122.068C1229.82 126.432 1232.1 130.795 1234.28 135.262H1234.49C1236.67 130.691 1238.95 126.224 1241.23 121.861C1243.52 117.498 1245.9 113.134 1248.29 108.771C1250.67 104.408 1252.96 99.9409 1255.24 95.6816C1255.34 95.2661 1255.55 94.8506 1255.86 94.6428C1256.28 94.435 1256.69 94.3311 1257.21 94.435H1279.1C1279.62 94.3311 1280.14 94.6428 1280.24 95.1622C1280.35 95.2661 1280.14 95.6816 1279.93 95.8894ZM1327.86 205.488C1320.19 205.592 1312.51 204.034 1305.56 200.813C1299.02 197.801 1293.63 192.814 1289.89 186.685C1286.05 180.348 1284.19 172.453 1284.19 162.999C1284.08 155.312 1286.05 147.728 1289.89 141.079C1293.83 134.327 1299.54 128.717 1306.39 124.977C1313.65 120.926 1322.37 118.952 1332.64 118.952C1333.16 118.952 1333.88 118.952 1334.82 119.056C1335.75 119.16 1336.79 119.16 1338.03 119.264V86.4359C1338.03 85.7087 1338.34 85.2931 1339.07 85.2931H1360.13C1360.65 85.1892 1361.06 85.6048 1361.17 86.0203V185.127C1361.17 186.997 1361.27 189.074 1361.38 191.36C1361.58 193.541 1361.69 195.619 1361.79 197.385C1361.79 198.112 1361.48 198.736 1360.75 199.047C1355.36 201.333 1349.65 202.995 1343.84 204.034C1338.55 204.969 1333.26 205.488 1327.86 205.488ZM1338.03 184.711V139.002C1337.1 138.794 1336.16 138.586 1335.23 138.482C1334.09 138.378 1332.95 138.275 1331.81 138.275C1327.76 138.275 1323.71 139.106 1320.08 140.976C1316.56 142.742 1313.55 145.339 1311.26 148.663C1308.98 151.987 1307.84 156.454 1307.84 161.857C1307.74 165.492 1308.36 169.128 1309.6 172.557C1310.64 175.362 1312.2 177.855 1314.27 179.933C1316.24 181.802 1318.63 183.257 1321.33 184.088C1324.13 185.023 1327.03 185.438 1329.94 185.438C1331.5 185.438 1332.95 185.335 1334.3 185.231C1335.65 185.335 1336.79 185.127 1338.03 184.711Z" fill="#323330"/>
<path d="M3275 0V308" stroke="#22222C"/>
</svg>
