<svg width="1694" height="244" viewBox="0 0 1694 244" fill="none" xmlns="http://www.w3.org/2000/svg">
<path d="M43.7396 0H203.26C227.446 0 247 19.5512 247 43.7329V197.056C247 221.237 227.446 240.788 203.26 240.788H43.7396C19.5542 240.788 0 221.237 0 197.056V43.7329C0 19.5512 19.5542 0 43.7396 0Z" fill="#FF6352"/>
<path d="M55.5455 168.888V63.0429C55.5455 62.3229 55.8541 61.9114 56.5741 61.9114C58.3227 61.9114 59.9685 61.9114 62.3344 61.8086C64.8031 61.7057 67.3746 61.7057 70.1519 61.6028C72.9292 61.5 75.9122 61.5 79.1009 61.3971C82.2896 61.2942 85.3755 61.2943 88.4613 61.2943C96.896 61.2943 103.891 62.3229 109.651 64.483C114.794 66.2316 119.526 69.1118 123.434 72.9177C126.726 76.2092 129.298 80.2209 130.943 84.6439C132.486 88.9641 133.309 93.3872 133.309 98.016C133.309 106.862 131.252 114.165 127.137 119.926C123.023 125.686 117.263 130.006 110.577 132.475C103.582 135.046 95.8674 135.972 87.4327 135.972C84.964 135.972 83.3182 135.972 82.2896 135.869C81.261 135.766 79.8209 135.766 77.8665 135.766V168.785C77.9694 169.505 77.4551 170.122 76.735 170.225H56.7798C55.9569 170.225 55.5455 169.814 55.5455 168.888ZM77.9694 81.7638V116.325C79.4095 116.428 80.7467 116.531 81.981 116.531H87.4327C91.4443 116.531 95.4559 115.914 99.2618 114.68C102.553 113.754 105.434 111.8 107.697 109.228C109.857 106.656 110.885 103.159 110.885 98.6332C110.988 95.4444 110.165 92.2557 108.519 89.4784C106.771 86.804 104.302 84.7468 101.319 83.6153C97.5132 82.0724 93.3987 81.4552 89.1814 81.5581C86.5069 81.5581 84.1411 81.5581 82.1867 81.6609C80.1295 81.5581 78.6894 81.6609 77.9694 81.7638ZM197.495 110.051C194.409 108.405 191.118 107.274 187.62 106.554C183.814 105.731 180.009 105.216 176.1 105.216C174.043 105.113 171.882 105.422 169.928 105.936C168.591 106.245 167.459 106.965 166.739 107.994C166.225 108.817 165.916 109.845 165.916 110.771C165.916 111.697 166.328 112.622 166.945 113.445C167.871 114.577 169.105 115.503 170.442 116.223C172.808 117.457 175.277 118.588 177.746 119.617C183.3 121.469 188.649 124.04 193.586 127.126C196.981 129.286 199.758 132.166 201.712 135.663C203.358 138.955 204.181 142.555 204.078 146.258C204.181 151.093 202.741 155.927 200.067 159.939C197.186 164.053 193.175 167.242 188.546 169.094C183.506 171.254 177.334 172.385 169.928 172.385C165.196 172.385 160.568 171.974 155.939 171.048C152.339 170.431 148.738 169.299 145.447 167.756C144.727 167.345 144.213 166.625 144.315 165.802V147.904C144.315 147.595 144.418 147.184 144.727 146.978C145.035 146.773 145.344 146.875 145.653 147.081C149.664 149.447 153.882 151.093 158.408 152.121C162.316 153.15 166.431 153.664 170.545 153.664C174.454 153.664 177.231 153.15 179.083 152.224C180.729 151.504 181.86 149.756 181.86 147.904C181.86 146.464 181.037 145.127 179.391 143.79C177.746 142.452 174.351 140.909 169.311 138.955C164.065 137.104 159.23 134.635 154.704 131.549C151.516 129.286 148.841 126.303 146.887 122.806C145.241 119.514 144.418 115.914 144.521 112.314C144.521 107.891 145.755 103.673 148.018 99.8675C150.59 95.753 154.396 92.4614 158.819 90.4042C163.653 87.9355 169.722 86.804 177.026 86.804C181.243 86.804 185.563 87.1126 189.78 87.7298C192.866 88.1412 195.849 88.9641 198.627 90.0956C199.038 90.1985 199.449 90.6099 199.655 91.0214C199.758 91.4328 199.861 91.8443 199.861 92.2557V109.022C199.861 109.434 199.655 109.845 199.347 110.051C198.421 110.257 197.907 110.257 197.495 110.051Z" fill="#323330"/>
<path d="M425.271 0H586.729C611.208 0 631 19.7917 631 44.2708V199.479C631 223.958 611.208 243.75 586.729 243.75H425.271C400.792 243.75 381 223.958 381 199.479V44.2708C381 19.7917 400.792 0 425.271 0Z" fill="#FF6352"/>
<path d="M501.833 145.833H463.083L455.167 170.313C454.958 171.25 454.125 171.875 453.188 171.771H433.604C432.458 171.771 432.146 171.146 432.458 169.896L466 73.3333C466.313 72.2917 466.625 71.1458 467.042 69.8958C467.458 67.7083 467.667 65.4167 467.667 63.125C467.563 62.6042 467.979 62.0833 468.5 61.9792H495.479C496.313 61.9792 496.729 62.2917 496.833 62.8125L534.854 170.104C535.167 171.25 534.854 171.771 533.813 171.771H512.042C511.313 171.875 510.583 171.354 510.375 170.625L501.833 145.833ZM469.125 124.688H495.583C494.958 122.5 494.125 119.896 493.188 117.188C492.25 114.375 491.313 111.354 490.375 108.229C489.333 105 488.396 101.875 487.354 98.6458C486.313 95.4167 485.375 92.3958 484.542 89.375C483.708 86.4583 482.979 83.75 482.25 81.25H482.042C481.104 85.7292 479.958 90.2083 478.5 94.6875C476.938 99.6875 475.375 104.896 473.708 110.104C472.25 115.417 470.688 120.313 469.125 124.688ZM558.083 80.2083C554.646 80.3125 551.313 78.9583 548.813 76.5625C546.417 73.9583 545.167 70.5208 545.271 66.9792C545.167 63.4375 546.521 60.1042 549.021 57.7083C551.521 55.3125 554.854 54.0625 558.292 54.0625C562.354 54.0625 565.479 55.3125 567.771 57.7083C570.063 60.2083 571.313 63.5417 571.208 66.9792C571.313 70.5208 570.063 73.9583 567.563 76.5625C565.167 79.0625 561.625 80.4167 558.083 80.2083ZM546.417 170.625V90.4167C546.417 89.375 546.833 88.9583 547.771 88.9583H568.396C569.333 88.9583 569.75 89.4792 569.75 90.4167V170.625C569.75 171.771 569.333 172.292 568.396 172.292H547.979C546.938 172.292 546.417 171.667 546.417 170.625Z" fill="#323330"/>
<path d="M809.316 0H970.94C995.444 0 1015.26 19.812 1015.26 44.3162V199.684C1015.26 224.188 995.444 244 970.94 244H809.316C784.812 244 765 224.188 765 199.684V44.3162C765 19.812 784.812 0 809.316 0Z" fill="#FF6352"/>
<path d="M855.926 63.8154V171.217C855.926 172.364 855.405 172.886 854.467 172.886H834.029C833.091 172.886 832.674 172.364 832.674 171.217V63.8154C832.674 62.877 833.195 62.4599 834.133 62.4599H854.467C855.092 62.3556 855.718 62.7727 855.822 63.5026C855.926 63.6069 855.926 63.7111 855.926 63.8154ZM916.197 174.137C908.48 174.241 900.764 172.677 893.778 169.444C887.209 166.421 881.786 161.415 878.032 155.263C874.174 148.903 872.297 140.978 872.297 131.489C872.193 123.773 874.174 116.161 878.032 109.487C881.995 102.709 887.73 97.0787 894.612 93.3248C901.911 89.2582 910.67 87.277 920.993 87.277C921.515 87.277 922.244 87.277 923.183 87.3812C924.121 87.4855 925.164 87.4855 926.415 87.5898V54.6394C926.415 53.9094 926.728 53.4923 927.458 53.4923H948.626C949.147 53.3881 949.564 53.8052 949.668 54.2223V153.699C949.668 155.576 949.773 157.662 949.877 159.956C950.085 162.145 950.19 164.231 950.294 166.003C950.294 166.733 949.981 167.359 949.251 167.672C943.829 169.966 938.094 171.634 932.255 172.677C927.041 173.615 921.619 174.137 916.197 174.137ZM926.415 153.282V107.402C925.477 107.193 924.538 106.985 923.6 106.88C922.453 106.776 921.306 106.672 920.159 106.672C916.092 106.672 912.026 107.506 908.376 109.383C904.831 111.156 901.807 113.762 899.513 117.099C897.219 120.436 896.072 124.92 896.072 130.342C895.968 133.991 896.593 137.641 897.844 141.082C898.887 143.897 900.451 146.4 902.537 148.486C904.518 150.362 906.916 151.822 909.627 152.656C912.443 153.595 915.362 154.012 918.282 154.012C919.846 154.012 921.306 153.908 922.662 153.803C924.017 153.908 925.268 153.699 926.415 153.282Z" fill="#323330"/>
<path d="M1612.71 121.199C1612.71 98.9382 1630.75 80.7995 1653.11 80.7995C1675.37 80.7995 1693.51 98.8466 1693.51 121.199C1693.51 143.46 1675.46 161.599 1653.11 161.599C1630.85 161.599 1612.71 143.46 1612.71 121.199Z" fill="#FF7A6B"/>
<path d="M1532 201.907C1532 179.646 1550.05 161.507 1572.4 161.507H1612.8V201.907C1612.8 224.168 1594.75 242.307 1572.4 242.307C1550.05 242.307 1532 224.26 1532 201.907Z" fill="#FF7A6B"/>
<path d="M1612.71 0.0916094V80.7995H1653.11C1675.37 80.7995 1693.51 62.7524 1693.51 40.3997C1693.51 18.1387 1675.46 0 1653.11 0H1612.71V0.0916094Z" fill="#FF6352"/>
<path d="M1532 40.4914C1532 62.7524 1550.05 80.8911 1572.4 80.8911H1612.8V0.0916138H1572.4C1550.05 0.0916138 1532 18.1387 1532 40.4914Z" fill="#FF7A6B"/>
<path d="M1532 121.199C1532 143.46 1550.05 161.599 1572.4 161.599H1612.8V80.7995H1572.4C1550.05 80.7995 1532 98.9382 1532 121.199Z" fill="#FF6352"/>
<path d="M1193.09 0H1353.91C1378.29 0 1398 19.7382 1398 44.1512V198.94C1398 223.353 1378.29 243.091 1353.91 243.091H1193.09C1168.71 243.091 1149 223.353 1149 198.94V44.1512C1149 19.7382 1168.71 0 1193.09 0Z" fill="#FF6352"/>
<path d="M1279.93 63.8894L1248.81 115.313L1282.01 169.852C1282.21 170.268 1282.32 170.683 1282.21 171.099C1282.11 171.514 1281.7 171.203 1281.07 171.307H1257.31C1255.65 171.307 1254.51 171.203 1253.79 170.164C1251.61 165.801 1249.33 161.541 1247.15 157.178C1244.97 152.919 1242.58 148.556 1240.09 144.089C1237.6 139.622 1235.11 135.155 1232.62 130.584H1232.41C1230.24 135.051 1227.85 139.518 1225.46 143.985C1223.08 148.452 1220.69 152.919 1218.41 157.282C1216.02 161.645 1213.64 166.112 1211.25 170.372C1210.83 171.411 1210 171.514 1208.86 171.514H1186.04C1185.62 171.514 1185.31 171.722 1185.31 171.203C1185.21 170.787 1185.31 170.372 1185.52 170.06L1217.79 117.079L1186.35 63.7855C1186.04 63.37 1185.93 62.9544 1186.14 62.7467C1186.35 62.435 1186.76 62.3311 1187.18 62.3311H1210.73C1211.25 62.3311 1211.77 62.435 1212.18 62.5389C1212.6 62.7467 1212.91 63.0583 1213.22 63.4739C1215.19 67.9409 1217.47 72.408 1219.86 76.8751C1222.35 81.3421 1224.74 85.7053 1227.33 90.0685C1229.82 94.4316 1232.1 98.7948 1234.28 103.262H1234.49C1236.67 98.6909 1238.95 94.2239 1241.23 89.8607C1243.52 85.4975 1245.9 81.1344 1248.29 76.7712C1250.67 72.408 1252.96 67.9409 1255.24 63.6816C1255.34 63.2661 1255.55 62.8506 1255.86 62.6428C1256.28 62.435 1256.69 62.3311 1257.21 62.435H1279.1C1279.62 62.3311 1280.14 62.6428 1280.24 63.1622C1280.35 63.2661 1280.14 63.6816 1279.93 63.8894ZM1327.86 173.488C1320.19 173.592 1312.51 172.034 1305.56 168.813C1299.02 165.801 1293.63 160.814 1289.89 154.685C1286.05 148.348 1284.19 140.453 1284.19 130.999C1284.08 123.312 1286.05 115.728 1289.89 109.079C1293.83 102.327 1299.54 96.7171 1306.39 92.9773C1313.65 88.9257 1322.37 86.9519 1332.64 86.9519C1333.16 86.9519 1333.88 86.9519 1334.82 87.0558C1335.75 87.1597 1336.79 87.1597 1338.03 87.2636V54.4359C1338.03 53.7087 1338.34 53.2931 1339.07 53.2931H1360.13C1360.65 53.1892 1361.06 53.6048 1361.17 54.0203V153.127C1361.17 154.997 1361.27 157.074 1361.38 159.36C1361.58 161.541 1361.69 163.619 1361.79 165.385C1361.79 166.112 1361.48 166.736 1360.75 167.047C1355.36 169.333 1349.65 170.995 1343.84 172.034C1338.55 172.969 1333.26 173.488 1327.86 173.488ZM1338.03 152.711V107.002C1337.1 106.794 1336.16 106.586 1335.23 106.482C1334.09 106.378 1332.95 106.275 1331.81 106.275C1327.76 106.275 1323.71 107.106 1320.08 108.976C1316.56 110.742 1313.55 113.339 1311.26 116.663C1308.98 119.987 1307.84 124.454 1307.84 129.857C1307.74 133.492 1308.36 137.128 1309.6 140.557C1310.64 143.362 1312.2 145.855 1314.27 147.933C1316.24 149.802 1318.63 151.257 1321.33 152.088C1324.13 153.023 1327.03 153.438 1329.94 153.438C1331.5 153.438 1332.95 153.335 1334.3 153.231C1335.65 153.335 1336.79 153.127 1338.03 152.711Z" fill="#323330"/>
</svg>
